<?xml version="1.0" encoding="UTF-8"?>
<!-- Generated by Pixelmator Pro 3.3.6 -->
<svg width="960" height="540" viewBox="0 0 960 540" xmlns="http://www.w3.org/2000/svg">
    <g id="Group">
        <path id="Path" fill="#f2ecce" fill-rule="evenodd" stroke="none" d="M 583.643311 354.883179 C 583.792297 354.969116 588.261658 357.561584 593.540161 362.826233 C 598.456116 367.716248 605.107666 375.99118 608.878235 387.597351 C 609.29187 388.855499 608.733582 390.212982 607.556824 390.823486 L 602.047363 393.642761 C 600.756165 388.265137 598.510437 383.190857 595.373718 378.517792 C 595.266418 378.357971 595.128357 378.232361 594.972778 378.142639 C 594.579956 377.916046 594.076721 377.919891 593.677124 378.18396 C 593.113464 378.563446 592.975037 379.322937 593.343323 379.880554 C 596.438293 384.469818 598.600769 389.480438 599.814697 394.784058 L 595.67395 396.893555 C 593.537781 387.44458 588.289307 380.713501 584.149963 376.661285 C 580.509949 373.095673 577.155518 370.973572 575.716675 370.143555 C 575.345276 369.92926 575.101563 369.801117 575.013428 369.756256 C 574.608582 369.522675 570.813599 367.393738 564.761353 365.851288 C 559.252747 364.457947 550.801636 363.331238 541.228516 365.605408 L 540.991272 360.895508 C 551.452332 358.279053 560.724609 359.489716 566.720886 360.99939 C 573.450623 362.692657 577.658142 365.119843 577.691956 365.139343 L 577.748169 365.171753 C 577.756104 365.176331 577.881592 365.243225 578.108215 365.373932 C 579.52771 366.19281 584.906555 369.507538 590.074768 375.565796 C 590.167847 375.673737 590.275696 375.761688 590.392578 375.829132 C 590.826477 376.079407 591.384094 376.045807 591.794495 375.703369 C 592.303467 375.262451 592.366333 374.503998 591.932007 373.983643 C 586.639038 367.774353 581.201416 364.348022 579.44458 363.334564 C 579.156616 363.168427 578.967529 363.066711 578.894165 363.028992 C 578.489258 362.79541 574.228455 360.382538 567.406799 358.666107 C 561.193604 357.091064 551.657104 355.818085 540.859741 358.420746 L 540.529358 352.157715 C 540.468689 350.833405 541.364319 349.670502 542.660522 349.398743 C 554.595215 346.852356 565.08844 348.467621 571.782593 350.275085 C 578.97583 352.205414 583.459473 354.77713 583.617065 354.868073 L 583.639526 354.880981 C 583.639832 354.881195 583.641235 354.881989 583.643311 354.883179 Z M 566.662415 408.405548 C 567.596008 408.944122 568.366211 409.688599 568.918457 410.57666 L 560.419189 414.939789 L 557.340576 416.507782 C 556.589478 414.664764 556.720398 412.566162 557.739197 410.800018 C 559.536926 407.683655 563.546082 406.607849 566.662415 408.405548 Z M 574.4021 372.196899 C 575.651245 372.91748 578.967102 374.98056 582.500977 378.453705 C 586.469055 382.362091 591.519775 388.889435 593.434937 398.045868 L 571.102661 409.467621 C 570.313721 408.15802 569.225891 407.080475 567.876038 406.301788 C 563.589844 403.829224 558.096619 405.293671 555.624084 409.579865 C 554.189819 412.066101 554.047363 415.042908 555.167419 417.623199 L 546.40509 422.104431 C 545.912903 422.360107 545.35553 422.338287 544.872009 422.059357 C 544.388123 421.780212 544.09021 421.308655 544.065063 420.754547 L 542.73877 394.904999 C 544.372192 394.542786 545.899414 393.714355 547.093018 392.5289 C 547.575134 392.057343 547.586487 391.283875 547.108337 390.813141 C 547.027771 390.731293 546.938904 390.663025 546.844055 390.608307 C 546.381592 390.341492 545.781433 390.400238 545.381348 390.791809 C 544.608093 391.56015 543.655334 392.120117 542.613464 392.41864 L 541.951965 379.712036 C 542.693848 379.855469 543.400024 380.112549 544.052551 380.488953 C 546.201538 381.728607 547.459717 384.043884 547.317383 386.525696 C 547.284851 387.005188 547.531616 387.428406 547.918579 387.651611 C 548.079285 387.744324 548.263672 387.802429 548.46228 387.815857 C 549.12915 387.855835 549.71283 387.338043 549.752441 386.670959 C 549.939087 383.254974 548.231262 380.080933 545.272522 378.374146 C 544.215088 377.76416 543.028015 377.379028 541.820129 377.237061 L 541.359802 368.080536 C 550.596497 365.791992 558.766357 366.861267 564.068848 368.195923 C 570.042358 369.692474 573.777466 371.847107 573.811218 371.866608 L 573.878845 371.905609 C 573.885742 371.909576 574.071716 372.006287 574.4021 372.196899 Z M 584.848633 352.75946 C 584.578613 352.603699 580.010986 349.968781 572.515625 347.939087 C 565.534851 346.056396 554.610107 344.357239 542.151489 347.006317 C 539.670044 347.538971 537.9729 349.753571 538.101318 352.286316 L 541.625671 420.876587 C 541.700623 422.254181 542.459229 423.486542 543.651855 424.1745 C 544.844116 424.862274 546.290649 424.902008 547.520752 424.277252 L 608.661011 392.989716 C 610.917847 391.832916 611.985229 389.255035 611.204102 386.840332 C 607.260132 374.729156 600.319946 366.122711 595.195374 361.022247 C 589.685974 355.549927 585.118347 352.915039 584.848633 352.75946 Z"/>
        <path id="path1" fill="#f2ecce" fill-rule="evenodd" stroke="none" d="M 574.12616 379.950104 C 577.242188 381.74762 578.32489 385.745544 576.527161 388.861908 C 574.723083 391.989288 570.719971 393.053864 567.604004 391.256348 C 564.48761 389.458649 563.405457 385.460541 565.209534 382.33316 C 567.007263 379.216797 571.009827 378.152374 574.12616 379.950104 Z M 575.346313 377.83493 C 571.06012 375.362396 565.571716 376.844757 563.105774 381.119568 C 560.633179 385.405762 562.097839 390.898621 566.384033 393.371185 C 570.670227 395.843719 576.169434 394.368073 578.641968 390.081879 C 581.107971 385.807068 579.632507 380.307495 575.346313 377.83493 Z"/>
        <path id="path2" fill="#f2ecce" fill-rule="evenodd" stroke="none" d="M 578.463745 397.524658 C 578.269592 397.412659 578.041809 397.352509 577.800354 397.363068 C 577.134644 397.39917 576.612 397.967316 576.641724 398.644073 L 576.739014 400.814117 C 576.759949 401.246307 576.999939 401.609528 577.348633 401.810669 C 577.540039 401.921082 577.768555 401.992676 578.013428 401.9841 C 578.678955 401.948364 579.201599 401.380188 579.171875 400.703461 L 579.074829 398.533081 C 579.055664 398.097778 578.813782 397.726593 578.463745 397.524658 Z"/>
        <path id="path3" fill="#f2ecce" fill-rule="evenodd" stroke="none" d="M 587.499207 391.502136 C 587.147095 391.299011 586.702576 391.275177 586.320435 391.482666 L 584.397705 392.502594 C 583.796997 392.815674 583.578186 393.559113 583.897827 394.148438 C 584.001953 394.358368 584.160583 394.52478 584.35199 394.635193 C 584.712036 394.842926 585.153198 394.857452 585.537292 394.659363 L 587.460022 393.639435 C 588.06073 393.326355 588.279541 392.582916 587.966431 391.982208 C 587.854126 391.77536 587.690247 391.612366 587.499207 391.502136 Z"/>
        <path id="path4" fill="#f2ecce" fill-rule="evenodd" stroke="none" d="M 555.319641 371.172455 C 555.051636 371.017883 554.725403 370.964325 554.402832 371.046234 L 552.298218 371.601349 C 551.648193 371.766449 551.25885 372.441406 551.42395 373.091431 C 551.52063 373.417023 551.72583 373.685242 551.99585 373.841003 C 552.26593 373.996796 552.594238 374.051514 552.913696 373.965515 L 555.01825 373.4104 C 555.674683 373.234253 556.057434 372.570709 555.892334 371.920654 C 555.803955 371.59021 555.59137 371.329224 555.319641 371.172455 Z"/>
        <path id="path5" fill="#f2ecce" fill-rule="evenodd" stroke="none" d="M 559.522705 378.820068 C 559.393738 378.745667 559.24884 378.693329 559.091675 378.669312 C 558.428467 378.571228 557.807861 379.023132 557.703735 379.697601 L 557.388672 381.85498 C 557.306091 382.362183 557.568359 382.843048 557.984619 383.08316 C 558.119812 383.161163 558.256226 383.209961 558.405884 383.236542 C 559.08075 383.340851 559.696289 382.871338 559.794006 382.207916 L 560.120178 380.056885 C 560.195313 379.548187 559.94696 379.064789 559.522705 378.820068 Z"/>
        <path id="path6" fill="#f2ecce" fill-rule="evenodd" stroke="none" d="M 557.690186 392.943329 C 557.378784 392.763672 556.988892 392.723999 556.62677 392.870422 C 556.007446 393.112976 555.703125 393.822235 555.956482 394.448303 L 556.755676 396.468445 C 556.873779 396.731476 557.053284 396.939819 557.278503 397.069733 C 557.593384 397.251373 557.992615 397.286774 558.344238 397.144897 C 558.970337 396.89151 559.274658 396.182251 559.020935 395.556 L 558.204468 393.541046 C 558.102173 393.279327 557.917114 393.074219 557.690186 392.943329 Z"/>
        <path id="path7" fill="#f2ecce" fill-rule="evenodd" stroke="none" d="M 569.411926 398.717377 C 569.103271 398.539337 568.717224 398.497742 568.356689 398.63266 L 566.325378 399.424957 C 565.699158 399.678711 565.383972 400.381256 565.637329 401.007294 C 565.737854 401.27533 565.928711 401.490234 566.164978 401.626526 C 566.468445 401.801605 566.850098 401.84201 567.213318 401.70636 L 569.24469 400.914093 C 569.870728 400.660675 570.186096 399.957794 569.932678 399.331726 C 569.831299 399.06134 569.643372 398.850891 569.411926 398.717377 Z"/>
        <path id="path8" fill="#f2ecce" fill-rule="evenodd" stroke="none" d="M 550.067444 407.872894 C 549.756042 407.693268 549.36615 407.653595 549.004089 407.800018 C 548.384705 408.042572 548.074036 408.762878 548.316345 409.382568 L 549.132629 411.397827 C 549.239685 411.65448 549.430542 411.869415 549.655396 411.999115 C 549.970642 412.180969 550.363281 412.227753 550.721558 412.074493 C 551.347595 411.821075 551.651917 411.111816 551.398193 410.485565 L 550.581726 408.470642 C 550.479431 408.208923 550.294373 408.003815 550.067444 407.872894 Z"/>
        <path id="path9" fill="#f2ecce" fill-rule="evenodd" stroke="none" d="M 551.698486 397.979401 C 551.381531 397.79657 550.98468 397.757904 550.618347 397.906036 L 548.612732 398.758179 C 547.986633 399.011597 547.693665 399.727417 547.953674 400.342072 C 548.06073 400.598724 548.23999 400.807434 548.464905 400.937134 C 548.791138 401.125336 549.190918 401.160614 549.54895 401.00769 L 551.565979 400.16214 C 552.180847 399.901825 552.473633 399.18634 552.213867 398.57132 C 552.108582 398.311554 551.923706 398.109314 551.698486 397.979401 Z"/>
        <path id="path10" fill="#f2ecce" fill-rule="evenodd" stroke="none" d="M 113.035133 38.047791 C 113.207138 38.047791 118.374092 38.06015 125.577255 39.98288 C 132.279129 41.762268 142.175858 45.606537 151.241638 53.776031 C 152.228683 54.659149 152.423386 56.114044 151.709076 57.230896 L 148.345398 62.426117 C 144.539764 58.413025 140.058838 55.13974 135.006546 52.65918 C 134.83374 52.574371 134.651382 52.534546 134.471817 52.534546 C 134.018311 52.534546 133.584305 52.789368 133.370102 53.217804 C 133.071472 53.828186 133.331085 54.555237 133.928726 54.854248 C 138.902969 57.283051 143.279968 60.542816 146.981689 64.530396 L 144.448975 68.426819 C 137.876907 61.309265 129.966995 58.101257 124.356483 56.659515 C 119.421654 55.389771 115.455559 55.227722 113.794418 55.227722 C 113.365601 55.227722 113.090469 55.238495 112.991722 55.243652 C 112.524284 55.243652 108.173157 55.295807 102.159706 56.984039 C 96.691734 58.529694 88.808113 61.776703 81.651939 68.530334 L 79.092949 64.569031 C 86.847168 57.075195 95.484116 53.49054 101.432663 51.801941 C 108.108261 49.905884 112.965843 49.905884 113.00486 49.905884 L 113.069763 49.905884 C 113.078918 49.905884 113.221062 49.901123 113.482658 49.901123 C 115.121498 49.901123 121.437157 50.084656 128.94133 52.749969 C 129.075912 52.796936 129.213272 52.819244 129.348251 52.819244 C 129.849152 52.819244 130.315399 52.511475 130.499741 52.009766 C 130.720322 51.373505 130.395828 50.685089 129.759552 50.451355 C 122.071823 47.71759 115.64946 47.466736 113.621216 47.466736 C 113.28875 47.466736 113.074142 47.473114 112.991722 47.477112 C 112.524284 47.477112 107.627678 47.516113 100.860901 49.438049 C 94.691765 51.178406 85.794823 54.841125 77.742378 62.491028 L 74.326538 57.230896 C 73.612236 56.114044 73.806938 54.659149 74.793983 53.776031 C 83.859749 45.606537 93.756485 41.762268 100.458359 39.98288 C 107.653954 38.060547 112.822899 38.047791 113.00486 38.047791 L 113.030746 38.047791 C 113.031143 38.047791 113.032738 38.047791 113.035126 38.047791 Z M 125.070793 92.895935 C 126.148621 92.895935 127.187828 93.155914 128.10997 93.649231 L 122.927879 101.675812 L 121.044571 104.572449 C 119.473022 103.351257 118.537743 101.467957 118.537743 99.428955 C 118.537743 95.831177 121.472992 92.895935 125.070793 92.895935 Z M 113.681747 57.6633 C 115.123894 57.6633 119.027084 57.793488 123.823746 59.036163 C 129.214081 60.438873 136.85083 63.569244 143.085266 70.543854 L 129.4478 91.597107 C 128.10997 90.856934 126.629204 90.467133 125.070793 90.467133 C 120.122429 90.467133 116.09581 94.480591 116.09581 99.428955 C 116.09581 102.299316 117.459915 104.949097 119.71949 106.624573 L 114.368576 114.884857 C 114.069954 115.352295 113.576233 115.611908 113.018013 115.611908 C 112.459389 115.611908 111.965668 115.352295 111.667046 114.884857 L 97.601151 93.155914 C 98.835052 92.02594 99.744064 90.545166 100.185623 88.921844 C 100.367584 88.272461 99.990921 87.596771 99.341515 87.427948 C 99.230827 87.397278 99.119743 87.382568 99.010246 87.382568 C 98.476311 87.382568 97.985771 87.733337 97.834869 88.272461 C 97.548988 89.324402 97.00351 90.285553 96.250183 91.064758 L 89.327728 80.388428 C 90.04203 80.141968 90.782211 80.01178 91.535538 80.01178 C 94.016487 80.01178 96.263313 81.388611 97.380165 83.609558 C 97.591591 84.041168 98.01683 84.284454 98.46357 84.284454 C 98.649117 84.284454 98.837845 84.242645 99.016617 84.15506 C 99.614258 83.856445 99.861122 83.116241 99.562103 82.518616 C 98.01683 79.466278 94.951378 77.570251 91.53553 77.570251 C 90.314766 77.570251 89.093994 77.829834 87.976753 78.310425 L 83.002502 70.608765 C 89.860062 64.010803 97.471344 60.854553 102.731468 59.361053 C 108.65374 57.672455 112.965843 57.672455 113.004868 57.672455 L 113.082909 57.672455 C 113.090874 57.672455 113.300308 57.6633 113.681747 57.6633 Z M 113.018013 35.605865 C 112.706245 35.605865 107.432983 35.605865 99.926018 37.593109 C 92.938263 39.450531 82.625847 43.437744 73.157539 51.958008 C 71.274231 53.659363 70.910706 56.425812 72.287552 58.555573 L 109.614914 116.209534 C 110.36824 117.365417 111.641167 118.053833 113.018013 118.053833 C 114.394455 118.053833 115.667381 117.365417 116.420708 116.209534 L 153.748062 58.555573 C 155.124908 56.425812 154.761383 53.659363 152.878082 51.958008 C 143.409775 43.437744 133.097351 39.450531 126.109604 37.593109 C 118.602638 35.605865 113.329376 35.605865 113.018013 35.605865 Z"/>
        <path id="path11" fill="#f2ecce" fill-rule="evenodd" stroke="none" d="M 117.316971 64.517273 C 120.914375 64.517273 123.850029 67.439392 123.850029 71.03717 C 123.850029 74.647705 120.914375 77.570251 117.316971 77.570251 C 113.719177 77.570251 110.78392 74.647705 110.78392 71.03717 C 110.78392 67.439392 113.719177 64.517273 117.316971 64.517273 Z M 117.316971 62.075348 C 112.368607 62.075348 108.355125 66.101959 108.355125 71.03717 C 108.355125 75.985535 112.368607 80.01178 117.316971 80.01178 C 122.265343 80.01178 126.291557 75.985535 126.291557 71.03717 C 126.291557 66.101959 122.265343 62.075348 117.316971 62.075348 Z"/>
        <path id="path12" fill="#f2ecce" fill-rule="evenodd" stroke="none" d="M 129.856308 77.573425 C 129.632141 77.573425 129.4048 77.635132 129.200943 77.764954 C 128.642319 78.128845 128.473495 78.882172 128.837418 79.453552 L 130.006027 81.284698 C 130.240143 81.648621 130.629547 81.843323 131.032089 81.843323 C 131.253067 81.843323 131.486786 81.791168 131.694626 81.661346 C 132.25325 81.297852 132.422073 80.544495 132.058151 79.973145 L 130.889542 78.141602 C 130.655426 77.774109 130.260452 77.573425 129.856308 77.573425 Z"/>
        <path id="path13" fill="#f2ecce" fill-rule="evenodd" stroke="none" d="M 134.673676 67.841522 C 134.267166 67.841522 133.870193 68.042999 133.642838 68.413696 L 132.486969 70.257996 C 132.123047 70.829346 132.305008 71.582672 132.876373 71.933441 C 133.071472 72.063232 133.292053 72.128143 133.513031 72.128143 C 133.928726 72.128143 134.31813 71.920288 134.551849 71.556793 L 135.707718 69.712494 C 136.071625 69.141113 135.889679 68.387817 135.318314 68.023895 C 135.11763 67.900848 134.894272 67.841522 134.673676 67.841522 Z"/>
        <path id="path14" fill="#f2ecce" fill-rule="evenodd" stroke="none" d="M 96.639984 66.311401 C 96.330612 66.311401 96.02124 66.42804 95.782738 66.660187 L 94.237076 68.192688 C 93.756493 68.660553 93.756493 69.439758 94.224335 69.920349 C 94.470795 70.154053 94.782555 70.283875 95.094315 70.283875 C 95.406075 70.283875 95.717842 70.167206 95.951561 69.933075 L 97.497231 68.400543 C 97.977814 67.919983 97.977814 67.1539 97.509972 66.673309 C 97.268288 66.431244 96.953735 66.311401 96.639984 66.311401 Z"/>
        <path id="path15" fill="#f2ecce" fill-rule="evenodd" stroke="none" d="M 104.102348 70.835693 C 103.953438 70.835693 103.801735 70.862793 103.653618 70.920532 C 103.030098 71.166992 102.718338 71.86853 102.965195 72.504822 L 103.770279 74.531067 C 103.95224 75.011658 104.419685 75.297119 104.900269 75.297119 C 105.056351 75.297119 105.198891 75.27124 105.341827 75.219482 C 105.978493 74.972626 106.277115 74.258301 106.030251 73.634796 L 105.237907 71.608551 C 105.048782 71.130341 104.592087 70.835693 104.102348 70.835693 Z"/>
        <path id="path16" fill="#f2ecce" fill-rule="evenodd" stroke="none" d="M 109.572311 83.985443 C 109.212769 83.985443 108.855217 84.145874 108.614731 84.453674 C 108.199448 84.973267 108.290222 85.739746 108.822571 86.155426 L 110.524315 87.505981 C 110.758041 87.674805 111.017639 87.765594 111.277641 87.765594 C 111.641167 87.765594 112.004684 87.596771 112.238411 87.298157 C 112.654091 86.765808 112.563309 85.999329 112.030563 85.583649 L 110.316475 84.246216 C 110.097092 84.070648 109.834297 83.985443 109.572311 83.985443 Z"/>
        <path id="path17" fill="#f2ecce" fill-rule="evenodd" stroke="none" d="M 122.611343 83.129791 C 122.25499 83.129791 121.899826 83.286652 121.654953 83.583679 L 120.291252 85.285034 C 119.875565 85.81778 119.953606 86.583862 120.485947 86.999512 C 120.706932 87.181488 120.979675 87.272278 121.252411 87.272278 C 121.602798 87.272278 121.953575 87.116577 122.200439 86.817566 L 123.564148 85.116211 C 123.979828 84.583862 123.901787 83.817413 123.369446 83.401733 C 123.146477 83.21817 122.87851 83.129791 122.611343 83.129791 Z"/>
        <path id="path18" fill="#f2ecce" fill-rule="evenodd" stroke="none" d="M 110.429558 100.72699 C 110.070015 100.72699 109.712463 100.887451 109.47197 101.195221 C 109.056686 101.714813 109.147469 102.494019 109.667076 102.909698 L 111.381165 104.247528 C 111.602142 104.416351 111.874886 104.507141 112.134483 104.507141 C 112.498405 104.507141 112.861931 104.35144 113.09565 104.039703 C 113.511337 103.507355 113.420555 102.740906 112.88781 102.325195 L 111.173721 100.987793 C 110.95433 100.812195 110.691544 100.72699 110.429558 100.72699 Z"/>
        <path id="path19" fill="#f2ecce" fill-rule="evenodd" stroke="none" d="M 106.898643 91.341888 C 106.532738 91.341888 106.169609 91.506714 105.926331 91.818085 L 104.614784 93.558472 C 104.199104 94.09082 104.303024 94.857269 104.835365 95.259827 C 105.056351 95.428619 105.315948 95.519806 105.575554 95.519806 C 105.952217 95.519806 106.316132 95.350586 106.549858 95.039246 L 107.874542 93.298859 C 108.277084 92.766113 108.173164 92.000061 107.640823 91.597107 C 107.419846 91.424713 107.158646 91.341888 106.898643 91.341888 Z"/>
        <path id="path20" fill="#f2ecce" fill-rule="evenodd" stroke="none" d="M 532.470764 78.752075 C 532.349121 78.873749 528.685669 82.519714 522.230774 86.254639 C 516.231873 89.736389 506.512604 94.017426 494.321808 94.651367 C 492.998993 94.724854 491.832214 93.833527 491.547485 92.53833 L 490.252014 86.484436 C 495.782318 86.631165 501.267029 85.777008 506.595123 83.957977 C 506.777344 83.895752 506.934479 83.794922 507.061493 83.667908 C 507.382263 83.347107 507.509003 82.859924 507.357483 82.405365 C 507.136963 81.76239 506.439117 81.431763 505.804871 81.643005 C 500.568573 83.443451 495.166962 84.233704 489.72818 84.031494 L 488.763611 79.484039 C 498.446533 79.869873 506.310394 76.544128 511.298584 73.59549 C 515.687195 71.003113 518.607117 68.312439 519.782043 67.137512 C 520.085327 66.834198 520.272339 66.631989 520.338562 66.558472 C 520.669189 66.227844 523.7099 63.113342 526.769226 57.665802 C 529.543518 52.704956 532.823059 44.832062 533.107788 34.993408 L 537.719727 35.985291 C 537.535522 46.770508 533.961975 55.415039 530.948853 60.816956 C 527.568176 66.879822 524.132324 70.315674 524.104736 70.343262 L 524.058838 70.38916 C 524.052368 70.39563 523.9552 70.499573 523.770142 70.684601 C 522.610962 71.843781 518.013977 76.181122 510.820953 79.603729 C 510.692535 79.66571 510.57959 79.74707 510.484131 79.84256 C 510.129822 80.196838 510.017731 80.744324 510.242188 81.229553 C 510.536224 81.835632 511.252686 82.093048 511.868042 81.808319 C 519.239319 78.304321 523.959412 73.939087 525.394043 72.504456 C 525.629211 72.269318 525.776489 72.113007 525.83197 72.05188 C 526.162598 71.721252 529.59845 68.230225 533.025269 62.084534 C 536.157837 56.490021 539.860107 47.606384 540.144836 36.499817 L 546.281494 37.804321 C 547.57666 38.08905 548.468018 39.255829 548.394531 40.578644 C 547.760559 52.76944 543.479553 62.488678 539.997803 68.48761 C 536.267944 74.93689 532.62085 78.60199 532.492188 78.730682 L 532.473877 78.748993 C 532.473572 78.749268 532.472473 78.750397 532.470764 78.752075 Z M 485.16272 48.470123 C 484.40036 49.232483 483.481415 49.78363 482.480225 50.086945 L 480.468292 40.744232 L 479.751526 37.363312 C 481.726868 37.115479 483.72052 37.786011 485.16272 39.228241 C 487.70752 41.77301 487.70752 45.925323 485.16272 48.470123 Z M 518.139038 65.335083 C 517.118958 66.355133 514.266113 69.023834 509.994354 71.537659 C 505.189514 74.358154 497.573761 77.545593 488.230774 77.022064 L 482.985474 52.484711 C 484.455292 52.061981 485.778351 51.290344 486.880646 50.188049 C 490.380707 46.687988 490.390015 41.001068 486.889954 37.501007 C 484.85968 35.470764 482.020599 34.561401 479.237274 34.974548 L 477.179443 25.347107 C 477.060028 24.805237 477.225616 24.2724 477.620453 23.877563 C 478.015594 23.482483 478.548431 23.316833 479.090271 23.436279 L 504.408569 28.856476 C 504.335052 30.528503 504.739471 32.218811 505.575348 33.679321 C 505.905975 34.267365 506.65033 34.478882 507.229065 34.138947 C 507.329041 34.082336 507.41803 34.014191 507.495483 33.936737 C 507.873138 33.559082 507.972015 32.963989 507.697418 32.475952 C 507.155579 31.529663 506.861542 30.463989 506.843231 29.380005 L 519.291138 32.035187 C 518.960266 32.714752 518.528809 33.330383 517.995972 33.86322 C 516.24115 35.618042 513.67804 36.233398 511.317169 35.452454 C 510.862335 35.296722 510.389496 35.425415 510.073517 35.741394 C 509.942261 35.87265 509.838348 36.035706 509.773865 36.224121 C 509.562347 36.858063 509.911285 37.556213 510.545502 37.767426 C 513.797485 38.833405 517.306824 38.006256 519.7229 35.590179 C 520.586365 34.726715 521.266235 33.679626 521.716553 32.549438 L 530.682434 34.478577 C 530.498779 43.995911 527.347656 51.611938 524.683472 56.388916 C 521.688965 61.772217 518.638916 64.822235 518.611328 64.849854 L 518.556091 64.905029 C 518.550476 64.910675 518.408813 65.065277 518.139038 65.335083 Z M 534.210083 80.467194 C 534.430603 80.246704 538.160461 76.516815 542.064697 69.801422 C 545.69342 63.545074 550.167358 53.430695 550.837952 40.707062 C 550.966614 38.17157 549.267029 35.957703 546.786743 35.42514 L 479.604797 21.047791 C 478.254395 20.763062 476.867126 21.176514 475.89325 22.15033 C 474.919647 23.123962 474.506226 24.51123 474.790955 25.861633 L 489.168304 93.043549 C 489.700867 95.523834 491.914734 97.22345 494.450226 97.094757 C 507.173859 96.424194 517.288208 91.950256 523.544556 88.321503 C 530.26001 84.417297 533.989868 80.687439 534.210083 80.467194 Z"/>
        <path id="path21" fill="#f2ecce" fill-rule="evenodd" stroke="none" d="M 510.719849 63.058411 C 508.175323 65.602905 504.032043 65.612488 501.487244 63.067719 C 498.933441 60.513916 498.942749 56.370331 501.487244 53.825836 C 504.032043 51.281036 508.175323 51.272034 510.729126 53.825836 C 513.273926 56.370605 513.264648 60.513611 510.719849 63.058411 Z M 512.447083 64.785645 C 515.947144 61.285583 515.937805 55.598663 512.447083 52.10791 C 508.946991 48.607849 503.260376 48.598816 499.760315 52.098877 C 496.260254 55.598938 496.260254 61.294586 499.760315 64.794647 C 503.251099 68.2854 508.946991 68.285706 512.447083 64.785645 Z"/>
        <path id="path22" fill="#f2ecce" fill-rule="evenodd" stroke="none" d="M 492.615723 62.692871 C 492.774261 62.534302 492.891418 62.329834 492.943817 62.093842 C 493.081512 61.441315 492.668091 60.789063 492.006561 60.642334 L 489.884766 60.173706 C 489.461761 60.081909 489.048615 60.219604 488.763885 60.504333 C 488.607605 60.660645 488.479156 60.862854 488.423981 61.101654 C 488.28598 61.753906 488.699402 62.406158 489.360931 62.552887 L 491.483002 63.02179 C 491.908539 63.11615 492.329865 62.978699 492.615723 62.692871 Z"/>
        <path id="path23" fill="#f2ecce" fill-rule="evenodd" stroke="none" d="M 496.091827 72.983795 C 496.379364 72.696259 496.51767 72.27298 496.41626 71.849976 L 495.929352 69.727905 C 495.782623 69.066376 495.121063 68.662231 494.468811 68.818237 C 494.239014 68.864441 494.037079 68.974548 493.880768 69.130859 C 493.586761 69.424866 493.458344 69.847321 493.55014 70.269775 L 494.037079 72.391815 C 494.183807 73.053375 494.845367 73.457489 495.506897 73.310791 C 495.73587 73.255859 495.935822 73.139832 496.091827 72.983795 Z"/>
        <path id="path24" fill="#f2ecce" fill-rule="evenodd" stroke="none" d="M 524.075989 47.164215 C 524.294861 46.945374 524.431152 46.644043 524.435669 46.311157 L 524.444946 44.133911 C 524.453979 43.463074 523.902832 42.911926 523.231995 42.902893 C 522.892334 42.911926 522.580017 43.040619 522.359497 43.261139 C 522.138977 43.481659 522.000977 43.784668 522.001282 44.115601 L 521.991943 46.292847 C 521.991943 46.972717 522.533813 47.514557 523.204651 47.52356 C 523.546814 47.523865 523.854065 47.386139 524.075989 47.164215 Z"/>
        <path id="path25" fill="#f2ecce" fill-rule="evenodd" stroke="none" d="M 515.597595 49.24234 C 515.702942 49.137024 515.791077 49.010559 515.855042 48.86496 C 516.121704 48.249603 515.846008 47.532867 515.221375 47.257446 L 513.218689 46.393677 C 512.750061 46.182465 512.217529 46.311157 511.877625 46.651093 C 511.767212 46.761475 511.684692 46.880615 511.620209 47.018341 C 511.344482 47.64325 511.638519 48.359711 512.25415 48.626129 L 514.247803 49.498901 C 514.719788 49.703369 515.251221 49.588745 515.597595 49.24234 Z"/>
        <path id="path26" fill="#f2ecce" fill-rule="evenodd" stroke="none" d="M 502.427612 43.810303 C 502.681915 43.556 502.82132 43.189606 502.773712 42.801819 C 502.699951 42.140533 502.093597 41.662628 501.423035 41.745148 L 499.264099 41.99353 C 498.97937 42.039429 498.731537 42.158844 498.547638 42.342743 C 498.290497 42.599884 498.152771 42.97641 498.1987 43.352966 C 498.281219 44.023499 498.887543 44.501434 499.55838 44.41864 L 501.716766 44.152222 C 501.996155 44.121216 502.24231 43.995636 502.427612 43.810303 Z"/>
        <path id="path27" fill="#f2ecce" fill-rule="evenodd" stroke="none" d="M 493.810089 53.638245 C 494.062134 53.3862 494.202393 53.024048 494.165497 52.640747 L 493.926697 50.472778 C 493.843903 49.801941 493.246826 49.315277 492.576294 49.397797 C 492.29129 49.425415 492.034149 49.554108 491.841248 49.747009 C 491.593414 49.994843 491.455414 50.353088 491.49231 50.739197 L 491.73111 52.907166 C 491.813629 53.577698 492.41098 54.064636 493.081512 53.982117 C 493.369049 53.954254 493.621124 53.82724 493.810089 53.638245 Z"/>
        <path id="path28" fill="#f2ecce" fill-rule="evenodd" stroke="none" d="M 489.979675 32.575073 C 490.233978 32.32077 490.373383 31.954376 490.325806 31.566559 C 490.252014 30.905304 489.636658 30.418365 488.975128 30.491882 L 486.816437 30.758026 C 486.540741 30.794922 486.2836 30.923615 486.099976 31.107239 C 485.84256 31.364624 485.695557 31.731873 485.750763 32.117706 C 485.833282 32.788269 486.439636 33.266174 487.110474 33.18338 L 489.26886 32.916962 C 489.548218 32.885986 489.794373 32.760376 489.979675 32.575073 Z"/>
        <path id="path29" fill="#f2ecce" fill-rule="evenodd" stroke="none" d="M 499.115387 36.715851 C 499.374207 36.457031 499.514465 36.083588 499.466309 35.691284 L 499.162994 33.532593 C 499.080475 32.862061 498.464813 32.393433 497.803558 32.485229 C 497.527863 32.522125 497.279755 32.641266 497.09613 32.82489 C 496.829712 33.091309 496.691986 33.468384 496.746887 33.853943 L 497.040924 36.021912 C 497.133026 36.683441 497.748383 37.151794 498.409912 37.060272 C 498.688171 37.025909 498.931488 36.89975 499.115387 36.715851 Z"/>
        <path id="path30" fill="#f2ecce" fill-rule="evenodd" stroke="none" d="M 860.083374 511.157379 C 859.911255 511.157379 854.740845 511.14505 847.532959 509.221039 C 840.82666 507.440491 830.923401 503.593689 821.851685 495.418793 C 820.863953 494.535095 820.669128 493.079254 821.383911 491.96167 L 824.749817 486.763 C 828.557983 490.778748 833.041809 494.054199 838.097473 496.536377 C 838.270386 496.621246 838.45282 496.661102 838.632507 496.661102 C 839.086365 496.661102 839.52063 496.406097 839.734985 495.977386 C 840.033813 495.366608 839.774048 494.639069 839.175964 494.339874 C 834.198486 491.909485 829.818604 488.647552 826.114441 484.657349 L 828.648804 480.758331 C 835.22522 487.880585 843.14032 491.090698 848.754517 492.533417 C 853.692627 493.803986 857.661316 493.966156 859.323547 493.966156 C 859.752686 493.966156 860.027954 493.955383 860.12677 493.950195 C 860.594543 493.950195 864.948547 493.89801 870.965942 492.208679 C 876.4375 490.661987 884.326355 487.412842 891.487244 480.654755 L 894.047913 484.618683 C 886.288574 492.117462 877.645935 495.704468 871.693481 497.394196 C 865.013489 499.291504 860.152649 499.291504 860.113647 499.291504 L 860.048706 499.291504 C 860.039551 499.291504 859.897278 499.296265 859.635498 499.296265 C 857.995605 499.296265 851.675781 499.11261 844.166687 496.445557 C 844.031982 496.398529 843.894531 496.376221 843.75946 496.376221 C 843.25824 496.376221 842.791687 496.684204 842.607239 497.186218 C 842.386475 497.822906 842.711243 498.51178 843.3479 498.745636 C 851.04071 501.481232 857.467285 501.732239 859.496887 501.732239 C 859.829529 501.732239 860.044312 501.725861 860.12677 501.721893 C 860.594543 501.721893 865.494385 501.682831 872.265625 499.759644 C 878.438782 498.018127 887.341614 494.353027 895.399353 486.698059 L 898.817444 491.96167 C 899.532227 493.079254 899.337402 494.535095 898.349731 495.418793 C 889.277954 503.593689 879.374695 507.440491 872.668396 509.221039 C 865.468079 511.144653 860.295715 511.157379 860.113647 511.157379 L 860.087708 511.157379 C 860.087341 511.157379 860.085754 511.157379 860.083374 511.157379 Z M 848.039734 456.273132 C 846.961243 456.273132 845.921326 456.012939 844.998596 455.519318 L 850.184082 447.487457 L 852.068604 444.588898 C 853.641235 445.810883 854.577087 447.695435 854.577087 449.735779 C 854.577087 453.335938 851.639954 456.273132 848.039734 456.273132 Z M 859.436279 491.528961 C 857.993225 491.528961 854.087463 491.398682 849.287598 490.155212 C 843.893738 488.751556 836.251953 485.619141 830.013428 478.639923 L 843.659851 457.572784 C 844.998596 458.313477 846.480347 458.703522 848.039734 458.703522 C 852.991394 458.703522 857.02063 454.687408 857.02063 449.735779 C 857.02063 446.863525 855.65564 444.212006 853.394592 442.535431 L 858.749023 434.269684 C 859.047852 433.801941 859.54187 433.542175 860.100464 433.542175 C 860.659485 433.542175 861.153503 433.801941 861.452332 434.269684 L 875.527527 456.012939 C 874.292786 457.143677 873.383179 458.625427 872.941345 460.249817 C 872.759277 460.899628 873.136169 461.575775 873.786011 461.74469 C 873.896729 461.775391 874.007935 461.790131 874.117493 461.790131 C 874.651794 461.790131 875.142639 461.439117 875.29364 460.899628 C 875.579712 459.846985 876.125549 458.885193 876.879395 458.105469 L 883.806396 468.788849 C 883.091614 469.035492 882.350952 469.165771 881.597107 469.165771 C 879.114502 469.165771 876.866211 467.788025 875.748657 465.565582 C 875.537048 465.133698 875.111572 464.890259 874.66449 464.890259 C 874.478882 464.890259 874.289978 464.932098 874.111084 465.019745 C 873.513062 465.318573 873.266052 466.059235 873.565247 466.657288 C 875.111572 469.711609 878.179016 471.608917 881.597107 471.608917 C 882.818665 471.608917 884.040283 471.349152 885.158264 470.868225 L 890.135742 478.574982 C 883.273682 485.177277 875.65741 488.335602 870.393799 489.830078 C 864.467651 491.519806 860.152649 491.519806 860.113647 491.519806 L 860.035522 491.519806 C 860.027588 491.519806 859.817993 491.528961 859.436279 491.528961 Z M 860.100464 513.600952 C 860.412476 513.600952 865.689209 513.600952 873.201111 511.612396 C 880.193481 509.753754 890.512695 505.763916 899.987244 497.238007 C 901.871765 495.535553 902.235535 492.767273 900.857788 490.636108 L 863.505798 432.944122 C 862.752014 431.787506 861.47821 431.098633 860.100464 431.098633 C 858.723145 431.098633 857.449341 431.787506 856.695557 432.944122 L 819.343567 490.636108 C 817.96582 492.767273 818.32959 495.535553 820.214111 497.238007 C 829.68866 505.763916 840.007874 509.753754 847.000244 511.612396 C 854.512146 513.600952 859.78894 513.600952 860.100464 513.600952 Z"/>
        <path id="path31" fill="#f2ecce" fill-rule="evenodd" stroke="none" d="M 855.798706 484.670471 C 852.198914 484.670471 849.261353 481.746429 849.261353 478.146271 C 849.261353 474.533356 852.198914 471.608917 855.798706 471.608917 C 859.398865 471.608917 862.33606 474.533356 862.33606 478.146271 C 862.33606 481.746429 859.398865 484.670471 855.798706 484.670471 Z M 855.798706 487.114014 C 860.750305 487.114014 864.766418 483.084747 864.766418 478.146271 C 864.766418 473.194641 860.750305 469.165771 855.798706 469.165771 C 850.847046 469.165771 846.818176 473.194641 846.818176 478.146271 C 846.818176 483.084747 850.847046 487.114014 855.798706 487.114014 Z"/>
        <path id="path32" fill="#f2ecce" fill-rule="evenodd" stroke="none" d="M 843.251099 471.605713 C 843.475403 471.605713 843.702881 471.543976 843.90686 471.414093 C 844.465881 471.049927 844.634827 470.296112 844.27063 469.724365 L 843.101257 467.891998 C 842.867004 467.527832 842.477356 467.333008 842.074524 467.333008 C 841.853394 467.333008 841.619507 467.385193 841.41156 467.515106 C 840.852539 467.878845 840.683655 468.63266 841.047791 469.204407 L 842.217163 471.03717 C 842.451416 471.404907 842.84668 471.605713 843.251099 471.605713 Z"/>
        <path id="path33" fill="#f2ecce" fill-rule="evenodd" stroke="none" d="M 838.430542 481.344025 C 838.837341 481.344025 839.234558 481.142426 839.462036 480.771484 L 840.618713 478.925995 C 840.982849 478.354248 840.800781 477.600433 840.229004 477.24942 C 840.033813 477.119537 839.813049 477.054596 839.591919 477.054596 C 839.175964 477.054596 838.786316 477.262573 838.552429 477.626312 L 837.395813 479.471832 C 837.031677 480.043579 837.213745 480.797394 837.785461 481.16156 C 837.986267 481.284668 838.209839 481.344025 838.430542 481.344025 Z"/>
        <path id="path34" fill="#f2ecce" fill-rule="evenodd" stroke="none" d="M 876.489319 482.875183 C 876.798889 482.875183 877.108459 482.758453 877.347107 482.526154 L 878.893799 480.992615 C 879.374695 480.524475 879.374695 479.744751 878.906555 479.263855 C 878.659912 479.029968 878.347961 478.900085 878.036011 478.900085 C 877.723999 478.900085 877.412048 479.016815 877.178162 479.251099 L 875.63147 480.784637 C 875.150574 481.265533 875.150574 482.032104 875.618774 482.513 C 875.860596 482.755249 876.175354 482.875183 876.489319 482.875183 Z"/>
        <path id="path35" fill="#f2ecce" fill-rule="evenodd" stroke="none" d="M 869.022034 478.34787 C 869.171021 478.34787 869.322815 478.32077 869.471069 478.263 C 870.094971 478.016388 870.406921 477.314362 870.159912 476.677673 L 869.354309 474.650085 C 869.172241 474.169189 868.704468 473.883514 868.223572 473.883514 C 868.067383 473.883514 867.924744 473.909424 867.781738 473.961212 C 867.144653 474.208221 866.845825 474.923004 867.092834 475.546936 L 867.885742 477.574524 C 868.074951 478.05304 868.531982 478.34787 869.022034 478.34787 Z"/>
        <path id="path36" fill="#f2ecce" fill-rule="evenodd" stroke="none" d="M 863.548462 465.189484 C 863.908264 465.189484 864.265991 465.028931 864.506653 464.720947 C 864.922241 464.200989 864.83136 463.434021 864.298706 463.018066 L 862.595825 461.666595 C 862.361938 461.497681 862.102173 461.40683 861.84198 461.40683 C 861.47821 461.40683 861.114502 461.575775 860.880615 461.874573 C 860.464661 462.407288 860.555481 463.174255 861.088562 463.59021 L 862.803772 464.928528 C 863.023315 465.104218 863.286316 465.189484 863.548462 465.189484 Z"/>
        <path id="path37" fill="#f2ecce" fill-rule="evenodd" stroke="none" d="M 850.500854 466.045685 C 850.857422 466.045685 851.21283 465.888733 851.457825 465.591492 L 852.822449 463.889038 C 853.238403 463.355927 853.160339 462.589355 852.627625 462.173401 C 852.406494 461.991333 852.133545 461.900482 851.860657 461.900482 C 851.51001 461.900482 851.158997 462.056274 850.911987 462.355499 L 849.547424 464.057953 C 849.13147 464.590637 849.209534 465.357605 849.742249 465.77356 C 849.965332 465.957245 850.233459 466.045685 850.500854 466.045685 Z"/>
        <path id="path38" fill="#f2ecce" fill-rule="evenodd" stroke="none" d="M 862.690674 448.43689 C 863.050415 448.43689 863.408203 448.276337 863.648865 447.968353 C 864.064392 447.448395 863.973572 446.668701 863.453613 446.252747 L 861.738403 444.914032 C 861.517273 444.745087 861.244385 444.654236 860.984619 444.654236 C 860.620422 444.654236 860.256653 444.810028 860.022766 445.122009 C 859.606812 445.654694 859.697693 446.421661 860.230774 446.837616 L 861.945984 448.175934 C 862.165527 448.351624 862.428467 448.43689 862.690674 448.43689 Z"/>
        <path id="path39" fill="#f2ecce" fill-rule="evenodd" stroke="none" d="M 866.223877 457.828186 C 866.590027 457.828186 866.953369 457.663239 867.196838 457.351654 L 868.509277 455.610138 C 868.925232 455.077454 868.821228 454.310486 868.288513 453.907684 C 868.067383 453.738739 867.807617 453.647491 867.547852 453.647491 C 867.170959 453.647491 866.806763 453.816833 866.572876 454.128418 L 865.247314 455.869934 C 864.844543 456.403015 864.948547 457.169586 865.481201 457.572784 C 865.702332 457.7453 865.963684 457.828186 866.223877 457.828186 Z"/>
        <path id="path40" fill="#f2ecce" fill-rule="evenodd" stroke="none" d="M 222.661011 487.488007 C 222.546829 487.359192 219.126205 483.48175 215.7845 476.811371 C 212.668213 470.611511 208.977417 460.648529 209.077179 448.436646 C 209.083282 447.111267 210.043533 445.999695 211.354034 445.793243 L 217.47731 444.863464 C 216.998352 450.377228 217.521637 455.905609 219.017838 461.335602 C 219.069046 461.521301 219.160278 461.684296 219.27948 461.818756 C 219.580521 462.158386 220.059433 462.314209 220.522461 462.190247 C 221.177765 462.008698 221.549881 461.331665 221.37709 460.685638 C 219.893921 455.348419 219.429489 449.90686 219.958344 444.487823 L 224.557404 443.797974 C 223.590057 453.444153 226.438431 461.496948 229.083099 466.655396 C 231.408051 471.193695 233.919434 474.271271 235.02211 475.515198 C 235.306763 475.836334 235.497452 476.035217 235.566879 476.105713 C 235.877167 476.45578 238.80455 479.679474 244.060547 483.061981 C 248.847702 486.130615 256.512451 489.878815 266.320221 490.754578 L 265.05249 495.300415 C 254.293442 494.46817 245.875793 490.379974 240.662582 487.046326 C 234.811401 483.305969 231.586884 479.668365 231.560989 479.63916 L 231.517899 479.590546 C 231.511826 479.583679 231.413895 479.480408 231.240234 479.284515 C 230.152359 478.057281 226.097412 473.205994 223.111969 465.817261 C 223.057816 465.685303 222.983337 465.567627 222.893738 465.466553 C 222.561234 465.091461 222.021255 464.946625 221.523209 465.141602 C 220.900314 465.398773 220.600204 466.098755 220.847534 466.730377 C 223.903534 474.302002 227.978928 479.277893 229.325302 480.796722 C 229.54599 481.045685 229.693222 481.202179 229.750916 481.261261 C 230.061203 481.611298 233.340836 485.252197 239.271927 489.043671 C 244.670334 492.508118 253.319016 496.739227 264.392914 497.691193 L 262.721344 503.740875 C 262.359161 505.017151 261.140442 505.837097 259.823883 505.684204 C 247.688248 504.318329 238.239929 499.459045 232.458664 495.621552 C 226.24263 491.509216 222.801895 487.646942 222.681107 487.510681 L 222.663925 487.491302 C 222.663651 487.490997 222.662598 487.489807 222.661011 487.488007 Z M 255.744431 442.066406 C 255.028961 441.259277 254.533829 440.308502 254.291122 439.290466 L 263.741699 437.842957 L 267.161011 437.330444 C 267.289734 439.317902 266.500275 441.268463 264.973389 442.621948 C 262.279205 445.010223 258.13269 444.76062 255.744431 442.066406 Z M 236.920776 473.982819 C 235.963455 472.902893 233.469986 469.893555 231.216476 465.476715 C 228.688751 460.509033 225.963547 452.712311 227.047974 443.413849 L 251.866318 439.650879 C 252.200104 441.144043 252.891144 442.511658 253.925644 443.67868 C 257.210419 447.384247 262.888794 447.735352 266.59436 444.450592 C 268.743835 442.545227 269.822601 439.764771 269.577332 436.96051 L 279.315002 435.484253 C 279.863281 435.397583 280.385406 435.594971 280.755981 436.013 C 281.126801 436.431335 281.260132 436.973358 281.108307 437.507294 L 274.173767 462.464355 C 272.508484 462.290466 270.796234 462.592712 269.287506 463.3396 C 268.68042 463.63443 268.424469 464.365021 268.729126 464.963379 C 268.779633 465.06662 268.842346 465.159576 268.915039 465.241577 C 269.26947 465.641418 269.857758 465.775909 270.361633 465.531036 C 271.339172 465.046814 272.421021 464.817291 273.504608 464.864166 L 270.104858 477.135071 C 269.446136 476.763763 268.8573 476.295929 268.357239 475.731781 C 266.710358 473.873932 266.249908 471.277435 267.171692 468.966797 C 267.354553 468.521973 267.254456 468.042053 266.957916 467.70752 C 266.834747 467.568573 266.678162 467.454987 266.493896 467.379272 C 265.873535 467.129944 265.155396 467.436432 264.906342 468.057068 C 263.646393 471.240387 264.261414 474.794586 266.5289 477.352509 C 267.339233 478.266693 268.343994 479.008514 269.445526 479.526154 L 266.980133 488.363525 C 257.487152 487.608063 250.071167 484.00354 245.461044 481.055908 C 240.265259 477.741943 237.402847 474.512848 237.376953 474.483643 L 237.32515 474.425201 C 237.319855 474.41922 237.173981 474.268463 236.920776 473.982819 Z M 220.84375 489.121796 C 221.050705 489.355255 224.551147 493.304138 231.022476 497.606567 C 237.051941 501.606323 246.883224 506.682007 259.548767 508.116455 C 262.072998 508.3974 264.385925 506.833221 265.066833 504.388428 L 283.462524 438.164673 C 283.828033 436.833282 283.498566 435.423065 282.584595 434.392029 C 281.670898 433.361267 280.310394 432.865021 278.944763 433.068176 L 210.992523 443.386993 C 208.483688 443.769714 206.653366 445.878326 206.629471 448.41803 C 206.534256 461.164185 210.393936 471.533325 213.641541 477.999084 C 217.136612 484.939789 220.637054 488.888641 220.84375 489.121796 Z"/>
        <path id="path41" fill="#f2ecce" fill-rule="evenodd" stroke="none" d="M 239.640244 466.710876 C 237.252258 464.016968 237.49176 459.878876 240.185944 457.490631 C 242.889694 455.093903 247.026917 455.352264 249.414917 458.046173 C 251.803162 460.740387 251.56311 464.878418 248.85936 467.275146 C 246.165161 469.663391 242.028503 469.40506 239.640244 466.710876 Z M 237.811615 468.331848 C 241.09639 472.037415 246.775894 472.369995 250.471619 469.093933 C 254.177185 465.809143 254.528015 460.131042 251.24324 456.425476 C 247.958466 452.71991 242.270798 452.377533 238.565231 455.662292 C 234.869507 458.938354 234.52684 464.626282 237.811615 468.331848 Z"/>
        <path id="path42" fill="#f2ecce" fill-rule="evenodd" stroke="none" d="M 241.093552 448.654022 C 241.242355 448.821899 241.439499 448.951172 241.672012 449.01767 C 242.315353 449.194427 242.991547 448.82077 243.177841 448.168976 L 243.773361 446.078339 C 243.890457 445.661438 243.777771 445.240601 243.510559 444.939148 C 243.363876 444.773682 243.169662 444.63327 242.934494 444.563782 C 242.291458 444.38678 241.615265 444.760437 241.428986 445.412231 L 240.83316 447.503143 C 240.713379 447.922394 240.825287 448.351379 241.093552 448.654022 Z"/>
        <path id="path43" fill="#f2ecce" fill-rule="evenodd" stroke="none" d="M 230.608047 451.506683 C 230.877899 451.811096 231.292282 451.97464 231.720795 451.898834 L 233.869156 451.540131 C 234.538589 451.43338 234.981934 450.797058 234.865326 450.136322 C 234.833023 449.904083 234.735199 449.695801 234.588516 449.530334 C 234.312576 449.219055 233.898453 449.065399 233.471085 449.131683 L 231.322708 449.490387 C 230.653275 449.597137 230.209946 450.233459 230.316696 450.902893 C 230.357773 451.134857 230.461624 451.341492 230.608047 451.506683 Z"/>
        <path id="path44" fill="#f2ecce" fill-rule="evenodd" stroke="none" d="M 254.709366 481.003815 C 254.914719 481.235474 255.207458 481.389709 255.539597 481.414215 L 257.713257 481.554382 C 258.382599 481.603699 258.966125 481.086456 259.015442 480.417114 C 259.026855 480.077393 258.917114 479.757751 258.710175 479.524292 C 258.503204 479.290833 258.208893 479.134827 257.878418 479.115204 L 255.704773 478.975067 C 255.025879 478.934174 254.452209 479.442719 254.402878 480.112061 C 254.382034 480.453735 254.501083 480.76886 254.709366 481.003815 Z"/>
        <path id="path45" fill="#f2ecce" fill-rule="evenodd" stroke="none" d="M 253.143784 472.412354 C 253.242645 472.523865 253.363617 472.619476 253.505173 472.692078 C 254.103638 472.995392 254.835953 472.763153 255.148544 472.155945 L 256.13147 470.208008 C 256.370575 469.752716 256.274048 469.213165 255.955032 468.853302 C 255.851425 468.73642 255.737427 468.646851 255.603775 468.574158 C 254.996292 468.261292 254.263168 468.51181 253.960114 469.110565 L 252.968719 471.048981 C 252.736176 471.508026 252.818695 472.045593 253.143784 472.412354 Z"/>
        <path id="path46" fill="#f2ecce" fill-rule="evenodd" stroke="none" d="M 259.359894 459.58728 C 259.598572 459.856506 259.956055 460.017731 260.346191 459.99353 C 261.010956 459.959595 261.524658 459.382813 261.482574 458.708252 L 261.364288 456.537384 C 261.335571 456.250305 261.231232 455.995636 261.058624 455.800934 C 260.817322 455.528717 260.449585 455.368561 260.070831 455.391754 C 259.39624 455.433838 258.882538 456.01062 258.924896 456.685486 L 259.061218 458.856873 C 259.075348 459.137726 259.185974 459.391083 259.359894 459.58728 Z"/>
        <path id="path47" fill="#f2ecce" fill-rule="evenodd" stroke="none" d="M 250.063705 450.391022 C 250.300262 450.657867 250.653488 450.819702 251.038467 450.805908 L 253.217758 450.697723 C 253.892639 450.655365 254.41449 450.088409 254.372406 449.413849 C 254.361969 449.127563 254.248901 448.863068 254.067856 448.658844 C 253.835266 448.396454 253.48584 448.237122 253.098053 448.250732 L 250.918762 448.358917 C 250.244171 448.401001 249.722015 448.968231 249.764114 449.642792 C 249.774673 449.93161 249.886353 450.190948 250.063705 450.391022 Z"/>
        <path id="path48" fill="#f2ecce" fill-rule="evenodd" stroke="none" d="M 271.327698 447.832123 C 271.566376 448.101349 271.923859 448.262573 272.313995 448.238373 C 272.97876 448.204437 273.502014 447.619202 273.468384 446.954163 L 273.332367 444.782532 C 273.312103 444.504974 273.199036 444.240479 273.026703 444.046082 C 272.785126 443.77356 272.427246 443.604675 272.038635 443.636597 C 271.364044 443.67868 270.850342 444.255463 270.8927 444.930328 L 271.029022 447.101715 C 271.043152 447.382568 271.153778 447.635925 271.327698 447.832123 Z"/>
        <path id="path49" fill="#f2ecce" fill-rule="evenodd" stroke="none" d="M 266.643555 456.706146 C 266.886444 456.980164 267.250946 457.142639 267.645599 457.118134 L 269.819489 456.945007 C 270.494049 456.902924 270.999023 456.316315 270.947113 455.650452 C 270.926849 455.372925 270.822784 455.117981 270.650452 454.923584 C 270.400421 454.641541 270.032135 454.481323 269.643829 454.513 L 267.461212 454.6763 C 266.795074 454.728485 266.290375 455.314819 266.34201 455.980957 C 266.359589 456.260864 266.470978 456.511444 266.643555 456.706146 Z"/>
        <path id="path50" fill="#f2ecce" fill-rule="evenodd" stroke="none" d="M 894.260681 76.813965 C 894.260681 76.641846 894.27301 71.471497 896.197021 64.26358 C 897.977539 57.557281 901.824341 47.654053 909.999268 38.582306 C 910.882935 37.594604 912.338806 37.39978 913.45636 38.114532 L 918.655029 41.480438 C 914.639282 45.288574 911.363831 49.772461 908.881653 54.828064 C 908.796814 55.001007 908.756958 55.183472 908.756958 55.363159 C 908.756958 55.816956 909.011963 56.251251 909.440674 56.465607 C 910.051453 56.764435 910.778992 56.504639 911.078186 55.906616 C 913.508606 50.929077 916.770508 46.549194 920.760742 42.845032 L 924.659729 45.379425 C 917.537476 51.955841 914.327332 59.870941 912.884644 65.485168 C 911.614075 70.423248 911.451904 74.391968 911.451904 76.054199 C 911.451904 76.483276 911.462646 76.758606 911.467834 76.857422 C 911.467834 77.325165 911.52002 81.679138 913.209351 87.696564 C 914.756042 93.168152 918.005188 101.056946 924.763306 108.217834 L 920.799377 110.778534 C 913.300598 103.019196 909.713562 94.376556 908.023865 88.424072 C 906.126587 81.74408 906.126587 76.883301 906.126587 76.844269 L 906.126587 76.779327 C 906.126587 76.770142 906.121765 76.62793 906.121765 76.36615 C 906.121765 74.726227 906.305481 68.406403 908.972534 60.897278 C 909.019531 60.762634 909.041809 60.625183 909.041809 60.490112 C 909.041809 59.988892 908.733826 59.522339 908.231812 59.33786 C 907.595154 59.117126 906.90625 59.441833 906.672424 60.078522 C 903.936829 67.771332 903.685791 74.197937 903.685791 76.227509 C 903.685791 76.560181 903.6922 76.774933 903.696167 76.857422 C 903.696167 77.325165 903.735229 82.224976 905.658386 88.996216 C 907.399902 95.169434 911.065063 104.072235 918.719971 112.130005 L 913.45636 115.548096 C 912.338806 116.262848 910.882935 116.068024 909.999268 115.080322 C 901.824341 106.008575 897.977539 96.105347 896.197021 89.399048 C 894.273438 82.1987 894.260681 77.026337 894.260681 76.844269 L 894.260681 76.818359 C 894.260681 76.817963 894.260681 76.816376 894.260681 76.813965 Z M 949.144897 64.770386 C 949.144897 63.691833 949.40509 62.651947 949.898743 61.729187 L 957.930603 66.914703 L 960.829163 68.799255 C 959.607178 70.371826 957.722595 71.307739 955.682312 71.307739 C 952.082092 71.307739 949.144897 68.370544 949.144897 64.770386 Z M 913.889099 76.166931 C 913.889099 74.723846 914.019348 70.818085 915.262817 66.01825 C 916.666504 60.624359 919.798889 52.982574 926.778137 46.744019 L 947.845276 60.390503 C 947.104614 61.729187 946.714539 63.210938 946.714539 64.770386 C 946.714539 69.722015 950.730652 73.751282 955.682312 73.751282 C 958.554504 73.751282 961.206055 72.386292 962.882629 70.125214 L 971.148376 75.479645 C 971.616089 75.778473 971.875854 76.272522 971.875854 76.831116 C 971.875854 77.390106 971.616089 77.884155 971.148376 78.182983 L 949.40509 92.258118 C 948.274353 91.023407 946.792603 90.1138 945.168274 89.671967 C 944.518433 89.489868 943.842285 89.866791 943.67334 90.516602 C 943.6427 90.62738 943.62793 90.738525 943.62793 90.848114 C 943.62793 91.382385 943.978943 91.87326 944.518433 92.024261 C 945.571045 92.310333 946.532837 92.856171 947.312561 93.609985 L 936.629211 100.537018 C 936.382568 99.822235 936.252258 99.081573 936.252258 98.327759 C 936.252258 95.845154 937.630066 93.596863 939.852478 92.479248 C 940.284363 92.2677 940.527771 91.842163 940.527771 91.395142 C 940.527771 91.209473 940.485962 91.02063 940.398315 90.841736 C 940.099487 90.243713 939.358826 89.996674 938.760742 90.295898 C 935.706421 91.842163 933.809143 94.909668 933.809143 98.327759 C 933.809143 99.549316 934.068909 100.770874 934.549805 101.888855 L 926.843079 106.866394 C 920.240784 100.004333 917.082458 92.388031 915.587952 87.12442 C 913.898254 81.198242 913.898254 76.883301 913.898254 76.844269 L 913.898254 76.766174 C 913.898254 76.758209 913.889099 76.548645 913.889099 76.166931 Z M 891.817139 76.831116 C 891.817139 77.143066 891.817139 82.41983 893.805664 89.931732 C 895.664307 96.924103 899.654114 107.243317 908.180054 116.717865 C 909.882507 118.602417 912.650757 118.966187 914.781921 117.588409 L 972.473938 80.23645 C 973.630554 79.482635 974.319397 78.208862 974.319397 76.831116 C 974.319397 75.453766 973.630554 74.179993 972.473938 73.426178 L 914.781921 36.074219 C 912.650757 34.696442 909.882507 35.060211 908.180054 36.944763 C 899.654114 46.419312 895.664307 56.738525 893.805664 63.730896 C 891.817139 71.242798 891.817139 76.519531 891.817139 76.831116 Z"/>
        <path id="path51" fill="#f2ecce" fill-rule="evenodd" stroke="none" d="M 920.747559 72.529297 C 920.747559 68.929535 923.671631 65.991943 927.27179 65.991943 C 930.884705 65.991943 933.809143 68.929535 933.809143 72.529297 C 933.809143 76.129486 930.884705 79.066681 927.27179 79.066681 C 923.671631 79.066681 920.747559 76.129486 920.747559 72.529297 Z M 918.304016 72.529297 C 918.304016 77.480957 922.333313 81.49707 927.27179 81.49707 C 932.223389 81.49707 936.252258 77.480957 936.252258 72.529297 C 936.252258 67.577698 932.223389 63.548828 927.27179 63.548828 C 922.333313 63.548828 918.304016 67.577698 918.304016 72.529297 Z"/>
        <path id="path52" fill="#f2ecce" fill-rule="evenodd" stroke="none" d="M 933.812317 59.98172 C 933.812317 60.206024 933.874084 60.433533 934.003967 60.637512 C 934.368103 61.196503 935.121948 61.365448 935.693665 61.001282 L 937.526062 59.831909 C 937.890198 59.597626 938.085022 59.207977 938.085022 58.805176 C 938.085022 58.584045 938.032837 58.350159 937.902954 58.142181 C 937.539185 57.583191 936.7854 57.414246 936.213623 57.778412 L 934.380859 58.947784 C 934.013123 59.182068 933.812317 59.577301 933.812317 59.98172 Z"/>
        <path id="path53" fill="#f2ecce" fill-rule="evenodd" stroke="none" d="M 924.074036 55.161163 C 924.074036 55.567963 924.275635 55.965179 924.646545 56.192688 L 926.492065 57.349304 C 927.063782 57.71347 927.817627 57.531403 928.16864 56.959656 C 928.298523 56.764435 928.363464 56.543701 928.363464 56.322571 C 928.363464 55.906616 928.155518 55.516968 927.791748 55.283081 L 925.946228 54.126465 C 925.374451 53.762299 924.620667 53.944366 924.25647 54.516113 C 924.133362 54.716919 924.074036 54.94043 924.074036 55.161163 Z"/>
        <path id="path54" fill="#f2ecce" fill-rule="evenodd" stroke="none" d="M 922.542847 93.21994 C 922.542847 93.52951 922.659607 93.839081 922.891907 94.077759 L 924.425415 95.62442 C 924.893555 96.105347 925.673279 96.105347 926.154175 95.637177 C 926.388062 95.390564 926.517944 95.078583 926.517944 94.766602 C 926.517944 94.454651 926.401245 94.1427 926.166931 93.908813 L 924.633423 92.362122 C 924.152527 91.881226 923.385925 91.881226 922.905029 92.349365 C 922.662781 92.591217 922.542847 92.905975 922.542847 93.21994 Z"/>
        <path id="path55" fill="#f2ecce" fill-rule="evenodd" stroke="none" d="M 927.07019 85.752655 C 927.07019 85.901672 927.09729 86.053467 927.155029 86.20166 C 927.401672 86.825623 928.103699 87.137573 928.740356 86.890564 L 930.767944 86.08493 C 931.24884 85.902863 931.534546 85.43512 931.534546 84.954224 C 931.534546 84.798035 931.508606 84.655396 931.456848 84.51236 C 931.209839 83.875275 930.495056 83.576447 929.871094 83.823486 L 927.843506 84.616333 C 927.36499 84.805603 927.07019 85.262573 927.07019 85.752655 Z"/>
        <path id="path56" fill="#f2ecce" fill-rule="evenodd" stroke="none" d="M 940.228577 80.279083 C 940.228577 80.638855 940.38916 80.996643 940.697144 81.237305 C 941.217041 81.652863 941.984009 81.562012 942.399963 81.029327 L 943.751465 79.326447 C 943.920349 79.09259 944.01123 78.832794 944.01123 78.572632 C 944.01123 78.208862 943.842285 77.845093 943.543457 77.611237 C 943.010742 77.195282 942.243774 77.286102 941.82782 77.819214 L 940.489563 79.534424 C 940.313843 79.753967 940.228577 80.016907 940.228577 80.279083 Z"/>
        <path id="path57" fill="#f2ecce" fill-rule="evenodd" stroke="none" d="M 939.372375 67.231445 C 939.372375 67.588043 939.529358 67.943451 939.826538 68.188477 L 941.529053 69.55307 C 942.062134 69.969025 942.828674 69.89093 943.244629 69.358246 C 943.426697 69.137115 943.517578 68.864197 943.517578 68.591278 C 943.517578 68.240662 943.361755 67.889648 943.062561 67.642639 L 941.360107 66.278015 C 940.827393 65.862061 940.060425 65.940155 939.64447 66.472839 C 939.460815 66.695984 939.372375 66.964111 939.372375 67.231445 Z"/>
        <path id="path58" fill="#f2ecce" fill-rule="evenodd" stroke="none" d="M 956.98114 79.421265 C 956.98114 79.781067 957.141724 80.138855 957.449707 80.379486 C 957.969666 80.795044 958.74939 80.704193 959.165344 80.184265 L 960.504028 78.469055 C 960.672974 78.247925 960.763794 77.974976 960.763794 77.71521 C 960.763794 77.351074 960.608032 76.987305 960.296021 76.753418 C 959.763367 76.337463 958.996399 76.428314 958.580444 76.961395 L 957.242126 78.676636 C 957.066406 78.896149 956.98114 79.159119 956.98114 79.421265 Z"/>
        <path id="path59" fill="#f2ecce" fill-rule="evenodd" stroke="none" d="M 947.589844 82.954498 C 947.589844 83.320679 947.754822 83.684021 948.066406 83.92746 L 949.807922 85.239868 C 950.340576 85.655823 951.107544 85.551849 951.510376 85.019165 C 951.679321 84.798035 951.770569 84.538239 951.770569 84.278473 C 951.770569 83.90155 951.601196 83.537415 951.289673 83.303528 L 949.548157 81.977966 C 949.015015 81.575165 948.248474 81.679138 947.845276 82.211853 C 947.672729 82.432983 947.589844 82.694336 947.589844 82.954498 Z"/>
        <path id="path60" fill="#f2ecce" fill-rule="evenodd" stroke="none" d="M -1.394554 268.412811 C -1.245565 268.326843 3.236135 265.755768 10.436124 263.821991 C 17.130283 262.014557 27.623531 260.399292 39.558205 262.945679 C 40.854439 263.217407 41.75005 264.380341 41.689388 265.704651 L 41.371727 271.885406 C 36.070126 270.310883 30.553257 269.7146 24.937593 270.090454 C 24.745539 270.103363 24.567688 270.159973 24.412146 270.249725 C 24.019325 270.476318 23.770733 270.91391 23.799255 271.392029 C 23.845585 272.069946 24.433731 272.569977 25.100811 272.530365 C 30.623016 272.148651 36.043106 272.785156 41.241959 274.389496 L 40.99509 279.030029 C 31.746038 276.148804 23.291674 277.322418 17.711544 278.877014 C 12.802627 280.242981 9.286285 282.084351 7.847439 282.914368 C 7.476002 283.128632 7.24306 283.275421 7.160115 283.329254 C 6.755224 283.562805 3.012417 285.782135 -1.352785 290.249176 C -5.316723 294.32019 -10.522947 301.071899 -13.346917 310.497528 L -17.542828 308.34494 C -14.570693 297.97937 -8.880663 290.558777 -4.571875 286.12381 C 0.263014 281.145874 4.470573 278.718689 4.504371 278.699188 L 4.560586 278.666779 C 4.568519 278.662201 4.689254 278.587036 4.915842 278.456329 C 6.335375 277.637451 11.897609 274.640686 19.729368 273.199707 C 19.869415 273.173157 19.99954 273.12384 20.116455 273.056396 C 20.550316 272.806122 20.800385 272.306549 20.709389 271.779877 C 20.582531 271.11853 19.957466 270.684387 19.289562 270.799866 C 11.26459 272.273224 5.576308 275.265015 3.81948 276.278473 C 3.531503 276.444611 3.348795 276.557343 3.279394 276.60199 C 2.874503 276.835541 -1.347358 279.31604 -6.248293 284.361938 C -10.722281 288.951965 -16.598524 296.570068 -19.750986 307.219849 L -25.338058 304.370392 C -26.514832 303.759918 -27.073149 302.402435 -26.659458 301.144287 C -22.888901 289.538116 -16.237383 281.263184 -11.321437 276.373169 C -6.049263 271.11264 -1.578373 268.51886 -1.420762 268.427917 L -1.398345 268.414978 C -1.398 268.414795 -1.39662 268.414001 -1.394551 268.412811 Z M 36.436512 309.90744 C 37.37011 309.368896 38.400166 309.07486 39.445412 309.041382 L 38.967407 318.583191 L 38.783478 322.033234 C 36.81205 321.760742 35.06089 320.596802 34.042065 318.830658 C 32.24435 315.714294 33.32016 311.70517 36.436512 309.90744 Z M 8.966812 285.080322 C 10.215974 284.359711 13.661908 282.522186 18.437624 281.201813 C 23.807537 279.72345 31.986517 278.619049 40.871689 281.545166 L 39.578823 306.595398 C 38.050175 306.622742 36.572784 307.024994 35.222919 307.80368 C 30.936726 310.276215 29.454353 315.764618 31.926905 320.050812 C 33.361137 322.537079 35.866714 324.150665 38.661102 324.47287 L 38.153652 334.301483 C 38.128559 334.855591 37.83062 335.327148 37.347095 335.606079 C 36.863228 335.885193 36.305859 335.907043 35.813629 335.651367 L 12.772682 323.858429 C 13.276851 322.263123 13.324321 320.526276 12.895676 318.899567 C 12.728799 318.246155 12.064922 317.849091 11.418065 318.027344 C 11.306869 318.056091 11.203285 318.098846 11.108442 318.153564 C 10.645956 318.420349 10.396337 318.969299 10.535005 319.511658 C 10.813006 320.565704 10.820784 321.670807 10.557612 322.722137 L -0.773154 316.933441 C -0.277586 316.363037 0.298493 315.880402 0.951009 315.503998 C 3.099968 314.264343 5.734107 314.334259 7.811244 315.699951 C 8.210038 315.96817 8.69993 315.9664 9.086888 315.743195 C 9.247602 315.650482 9.390187 315.519958 9.50127 315.354767 C 9.869725 314.797485 9.713704 314.03299 9.156074 313.664734 C 6.292435 311.792999 2.689789 311.682373 -0.268953 313.389191 C -1.326361 313.999176 -2.254054 314.834015 -2.981659 315.808533 L -11.138561 311.622955 C -8.495462 302.481415 -3.479779 295.944397 0.330195 292.02243 C 4.61622 287.600586 8.351291 285.445953 8.38509 285.426453 L 8.452686 285.387482 C 8.459584 285.383484 8.636416 285.270905 8.966813 285.080322 Z M -2.629544 266.306213 C -2.899587 266.461975 -7.467203 269.096863 -12.976645 274.569183 C -18.101221 279.669647 -25.041374 288.276093 -28.985331 300.387238 C -29.766508 302.801971 -28.69908 305.379852 -26.442293 306.536652 L 34.698017 337.824158 C 35.928085 338.448944 37.374657 338.40921 38.567257 337.721222 C 39.759514 337.033478 40.518116 335.801117 40.593082 334.423523 L 44.117435 265.833252 C 44.245853 263.300507 42.548668 261.085907 40.067265 260.553253 C 27.608639 257.904175 16.683912 259.603333 9.703134 261.486023 C 2.20777 263.515717 -2.359846 266.150604 -2.629543 266.306213 Z"/>
        <path id="path61" fill="#f2ecce" fill-rule="evenodd" stroke="none" d="M 15.540312 289.200684 C 18.656321 287.403198 22.659229 288.467407 24.456942 291.583771 C 26.261023 294.711151 25.178503 298.709442 22.062494 300.506958 C 18.946142 302.304688 14.943378 301.239899 13.139298 298.112518 C 11.341585 294.996155 12.42396 290.998413 15.540312 289.200684 Z M 14.320151 287.085541 C 10.033958 289.558075 8.569532 295.0513 11.035519 299.326111 C 13.508071 303.612305 18.996264 305.09433 23.282457 302.621765 C 27.568649 300.149231 29.04431 294.649994 26.571758 290.3638 C 24.105772 286.088989 18.606342 284.612976 14.320151 287.085541 Z"/>
        <path id="path62" fill="#f2ecce" fill-rule="evenodd" stroke="none" d="M 32.925449 294.244171 C 32.731281 294.356201 32.565193 294.523254 32.453472 294.737549 C 32.151443 295.331879 32.381626 296.068756 32.982342 296.381836 L 34.909542 297.384033 C 35.29417 297.582275 35.728752 297.556335 36.077427 297.355194 C 36.268837 297.244781 36.445221 297.082825 36.56039 296.866547 C 36.862621 296.272522 36.632435 295.535645 36.031719 295.222595 L 34.104321 294.220062 C 33.717899 294.018707 33.275505 294.042236 32.925449 294.244171 Z"/>
        <path id="path63" fill="#f2ecce" fill-rule="evenodd" stroke="none" d="M 32.235439 283.407471 C 31.883314 283.610596 31.640135 283.983459 31.628429 284.418152 L 31.548775 286.593201 C 31.519047 287.269958 32.05307 287.831543 32.723251 287.849884 C 32.9571 287.864838 33.180595 287.810852 33.372005 287.700409 C 33.732059 287.492706 33.965504 287.118103 33.986309 286.686462 L 34.065964 284.511414 C 34.095692 283.834656 33.561668 283.273071 32.884922 283.243347 C 32.649624 283.23703 32.426502 283.297272 32.235439 283.407471 Z"/>
        <path id="path64" fill="#f2ecce" fill-rule="evenodd" stroke="none" d="M -1.47328 301.086426 C -1.741253 301.240997 -1.950934 301.496643 -2.04153 301.816864 L -2.614603 303.916656 C -2.797109 304.562012 -2.407763 305.236938 -1.762395 305.419464 C -1.432129 305.498749 -1.097229 305.455414 -0.827186 305.299622 C -0.557144 305.14386 -0.345393 304.887024 -0.25993 304.567444 L 0.313142 302.467682 C 0.489282 301.811279 0.106502 301.147705 -0.538867 300.96521 C -0.869172 300.876282 -1.201513 300.929657 -1.47328 301.086426 Z"/>
        <path id="path65" fill="#f2ecce" fill-rule="evenodd" stroke="none" d="M 7.251167 301.276581 C 7.122181 301.350983 7.00431 301.450256 6.904861 301.574249 C 6.487926 302.099304 6.568434 302.862762 7.100183 303.290527 L 8.809991 304.643372 C 9.207735 304.968719 9.755274 304.982422 10.171546 304.742279 C 10.30674 304.664307 10.417275 304.570648 10.515225 304.454407 C 10.943342 303.922455 10.845087 303.15451 10.319704 302.737793 L 8.620932 301.378601 C 8.218174 301.058899 7.675372 301.03186 7.251167 301.276581 Z"/>
        <path id="path66" fill="#f2ecce" fill-rule="evenodd" stroke="none" d="M 18.559681 309.933472 C 18.248253 310.113129 18.018726 310.430786 17.964205 310.817535 C 17.864124 311.475098 18.325735 312.093658 18.994547 312.187714 L 21.14341 312.507233 C 21.43021 312.536682 21.700434 312.485596 21.92564 312.355682 C 22.240519 312.174042 22.471041 311.846161 22.524273 311.470734 C 22.618334 310.80191 22.156721 310.18338 21.487568 310.089508 L 19.334578 309.787537 C 19.05681 309.745056 18.786613 309.802582 18.559681 309.933472 Z"/>
        <path id="path67" fill="#f2ecce" fill-rule="evenodd" stroke="none" d="M 29.426329 302.677094 C 29.117661 302.855164 28.888412 303.168518 28.824726 303.548157 L 28.49362 305.703247 C 28.399757 306.372375 28.850136 306.996948 29.518946 307.091003 C 29.801275 307.138214 30.08288 307.080566 30.319124 306.944275 C 30.622622 306.769196 30.848673 306.459076 30.913088 306.076721 L 31.244194 303.921631 C 31.338255 303.252838 30.887678 302.62793 30.218868 302.533875 C 29.934017 302.486267 29.657745 302.54361 29.426329 302.677094 Z"/>
        <path id="path68" fill="#f2ecce" fill-rule="evenodd" stroke="none" d="M 27.667467 324.006378 C 27.356039 324.186035 27.126513 324.503693 27.071993 324.890442 C 26.97191 325.548004 27.43989 326.177582 28.097664 326.278015 L 30.250853 326.580353 C 30.526617 326.61615 30.808222 326.558502 31.033085 326.428802 C 31.348307 326.246948 31.585394 325.93045 31.632063 325.54364 C 31.726122 324.874817 31.264511 324.256287 30.595354 324.162415 L 28.442364 323.860443 C 28.164598 323.817963 27.8944 323.875488 27.667467 324.006378 Z"/>
        <path id="path69" fill="#f2ecce" fill-rule="evenodd" stroke="none" d="M 19.919601 317.641479 C 19.602655 317.82431 19.370489 318.148529 19.315344 318.539764 L 19.048914 320.702606 C 18.954855 321.371399 19.427847 321.983368 20.090094 322.066071 C 20.365858 322.101868 20.63628 322.051147 20.861143 321.921417 C 21.187401 321.733215 21.41807 321.404785 21.464935 321.018311 L 21.742746 318.848938 C 21.825228 318.18634 21.352434 317.574707 20.689989 317.491699 C 20.412434 317.452789 20.14481 317.511536 19.919601 317.641479 Z"/>
    </g>
</svg>
